<svg width="277" height="207" viewBox="0 0 277 207" fill="none" xmlns="http://www.w3.org/2000/svg">
<path d="M248.826 190.68H230.525V190.818H248.826V190.68Z" fill="#EBEBEB"/>
<path d="M183.248 192.183H178.446V192.321H183.248V192.183Z" fill="#EBEBEB"/>
<path d="M229.973 185.552H219.369V185.69H229.973V185.552Z" fill="#EBEBEB"/>
<path d="M53.0784 186.48H29.2129V186.619H53.0784V186.48Z" fill="#EBEBEB"/>
<path d="M61.4997 186.48H58.002V186.619H61.4997V186.48Z" fill="#EBEBEB"/>
<path d="M124.637 188.812H72.8721V188.951H124.637V188.812Z" fill="#EBEBEB"/>
<path d="M131.958 157.145H25.2567C24.4199 157.145 23.6174 156.812 23.0257 156.22C22.434 155.629 22.1016 154.826 22.1016 153.989V4.00547C22.1088 3.17347 22.4445 2.37802 23.0354 1.79227C23.6263 1.20652 24.4247 0.877898 25.2567 0.87793H131.958C132.372 0.87793 132.783 0.95954 133.165 1.1181C133.548 1.27666 133.896 1.50907 134.189 1.80206C134.482 2.09504 134.714 2.44287 134.873 2.82567C135.031 3.20847 135.113 3.61876 135.113 4.0331V153.989C135.113 154.404 135.031 154.814 134.873 155.197C134.714 155.58 134.482 155.927 134.189 156.22C133.896 156.513 133.548 156.746 133.165 156.904C132.783 157.063 132.372 157.145 131.958 157.145ZM25.2567 0.988444C24.457 0.989905 23.6905 1.30824 23.125 1.87372C22.5595 2.43921 22.2412 3.20576 22.2397 4.00547V153.989C22.2412 154.789 22.5595 155.556 23.125 156.121C23.6905 156.687 24.457 157.005 25.2567 157.006H131.958C132.758 157.005 133.524 156.687 134.09 156.121C134.655 155.556 134.973 154.789 134.975 153.989V4.00547C134.973 3.20576 134.655 2.43921 134.09 1.87372C133.524 1.30824 132.758 0.989905 131.958 0.988444H25.2567Z" fill="#EBEBEB"/>
<path d="M251.479 157.145H144.778C143.941 157.145 143.139 156.812 142.547 156.22C141.955 155.629 141.623 154.826 141.623 153.989V4.00547C141.63 3.17347 141.966 2.37802 142.557 1.79227C143.148 1.20652 143.946 0.877898 144.778 0.87793H251.479C252.316 0.87793 253.119 1.21035 253.71 1.80206C254.302 2.39377 254.635 3.1963 254.635 4.0331V153.989C254.635 154.826 254.302 155.629 253.71 156.22C253.119 156.812 252.316 157.145 251.479 157.145ZM144.778 0.988444C143.979 0.989905 143.212 1.30824 142.646 1.87372C142.081 2.43921 141.763 3.20576 141.761 4.00547V153.989C141.763 154.789 142.081 155.556 142.646 156.121C143.212 156.687 143.979 157.005 144.778 157.006H251.479C252.279 157.005 253.046 156.687 253.611 156.121C254.177 155.556 254.495 154.789 254.496 153.989V4.00547C254.495 3.20576 254.177 2.43921 253.611 1.87372C253.046 1.30824 252.279 0.989905 251.479 0.988444H144.778Z" fill="#EBEBEB"/>
<path d="M276.51 181.789H0.225586V181.927H276.51V181.789Z" fill="#EBEBEB"/>
<path d="M93.9466 39.1602H53.7969V90.0352H93.9466V39.1602Z" fill="#F0F0F0"/>
<path d="M89.9519 44.2217H57.7979V84.9681H89.9519V44.2217Z" fill="#FAFAFA"/>
<path d="M50.6973 90.0352H53.8027L53.8027 39.1601H50.6973L50.6973 90.0352Z" fill="#E0E0E0"/>
<path d="M78.5524 65.225C80.2781 66.9506 81.2475 69.2911 81.2475 71.7315C81.2475 74.1719 80.2781 76.5123 78.5524 78.238C76.8268 79.9636 74.4863 80.9331 72.0459 80.9331C69.6055 80.9331 67.265 79.9636 65.5394 78.238C61.9422 74.6407 74.9552 61.6277 78.5524 65.225Z" fill="#F5F5F5"/>
<path d="M68.9429 64.512C68.2705 63.8397 67.7372 63.0416 67.3734 62.1632C67.0095 61.2848 66.8223 60.3433 66.8223 59.3925C66.8223 58.4417 67.0095 57.5002 67.3734 56.6218C67.7372 55.7434 68.2705 54.9452 68.9429 54.2729C69.6152 53.6006 70.4133 53.0673 71.2917 52.7035C72.1701 52.3396 73.1116 52.1523 74.0624 52.1523C75.0132 52.1523 75.9547 52.3396 76.8331 52.7035C77.7115 53.0673 78.5097 53.6006 79.182 54.2729C82.0056 57.1021 71.772 67.3412 68.9429 64.512Z" fill="#EBEBEB"/>
<path d="M215.993 110.685H211.225V182.121H215.993V110.685Z" fill="#F0F0F0"/>
<path d="M218.071 110.685H213.921V182.121H218.071V110.685Z" fill="#E6E6E6"/>
<path d="M167.914 110.685H163.146V182.121H167.914V110.685Z" fill="#F0F0F0"/>
<path d="M169.992 110.685H165.842V182.121H169.992V110.685Z" fill="#E6E6E6"/>
<path d="M234.073 110.685H229.305V182.121H234.073V110.685Z" fill="#F0F0F0"/>
<path d="M236.145 110.685H231.995V182.121H236.145V110.685Z" fill="#E6E6E6"/>
<path d="M185.994 110.685H181.226V182.121H185.994V110.685Z" fill="#F0F0F0"/>
<path d="M236.15 106.099H163.15V111.823H236.15V106.099Z" fill="#F0F0F0"/>
<path d="M183.921 106.099H163.15V111.823H183.921V106.099Z" fill="#E0E0E0"/>
<path d="M188.072 110.685H183.922V182.121H188.072V110.685Z" fill="#E6E6E6"/>
<path d="M67.9481 106.463H37.4131V182.121H67.9481V106.463Z" fill="#E6E6E6"/>
<path d="M125.067 106.463H61.2842V182.121H125.067V106.463Z" fill="#F5F5F5"/>
<path d="M103.335 111.237H113.751C114.84 111.237 115.917 111.452 116.923 111.868C117.929 112.285 118.842 112.895 119.612 113.665C120.382 114.435 120.992 115.348 121.409 116.354C121.825 117.36 122.04 118.437 122.04 119.526V178.363H95.0576V119.515C95.0605 117.32 95.9336 115.217 97.4853 113.665C99.037 112.113 101.141 111.24 103.335 111.237Z" fill="#EBEBEB"/>
<path d="M73.2199 111.237H83.6634C84.7519 111.237 85.8297 111.452 86.8353 111.868C87.8409 112.285 88.7547 112.895 89.5243 113.665C90.294 114.435 90.9045 115.348 91.3211 116.354C91.7376 117.36 91.952 118.437 91.952 119.526V178.363H64.9424V119.515C64.9453 117.32 65.8183 115.217 67.37 113.665C68.9217 112.113 71.0254 111.24 73.2199 111.237Z" fill="#EBEBEB"/>
<path d="M89.4876 144.292C89.4553 144.814 89.271 145.315 88.9576 145.733C88.6442 146.151 88.2152 146.469 87.7236 146.647C87.2319 146.824 86.699 146.854 86.1905 146.733C85.6821 146.612 85.2202 146.344 84.8618 145.964C84.5034 145.583 84.2641 145.106 84.1734 144.591C84.0828 144.076 84.1446 143.546 84.3515 143.066C84.5583 142.586 84.901 142.177 85.3374 141.889C85.7738 141.601 86.2849 141.447 86.8076 141.446C87.1705 141.457 87.5277 141.539 87.8588 141.688C88.1899 141.837 88.4885 142.049 88.7374 142.314C88.9863 142.578 89.1806 142.889 89.3094 143.228C89.4381 143.568 89.4987 143.929 89.4876 144.292Z" fill="#E0E0E0"/>
<path d="M103.285 144.292C103.253 144.814 103.069 145.315 102.755 145.734C102.441 146.152 102.012 146.47 101.52 146.647C101.028 146.825 100.495 146.854 99.9864 146.732C99.4778 146.611 99.0159 146.343 98.6577 145.962C98.2996 145.58 98.0607 145.103 97.9707 144.588C97.8806 144.073 97.9433 143.542 98.1509 143.062C98.3586 142.582 98.7022 142.173 99.1393 141.886C99.5764 141.599 100.088 141.446 100.611 141.446C101.343 141.469 102.036 141.782 102.537 142.316C103.039 142.849 103.308 143.56 103.285 144.292Z" fill="#E0E0E0"/>
<path d="M138.368 206.439C197.539 206.439 245.506 203.638 245.506 200.184C245.506 196.729 197.539 193.929 138.368 193.929C79.1976 193.929 31.2305 196.729 31.2305 200.184C31.2305 203.638 79.1976 206.439 138.368 206.439Z" fill="#F5F5F5"/>
<path d="M161.864 185.099C161.814 177.191 159.465 172.34 157.498 169.665C156.383 168.044 154.92 166.692 153.216 165.709L153.464 165.189C153.553 165.234 162.344 169.61 162.444 185.082L161.864 185.099Z" fill="#F7B00A"/>
<path d="M164.146 183.7L163.593 183.651C165.859 157.989 148.674 148.971 148.524 148.883L148.784 148.369C148.939 148.458 166.45 157.652 164.146 183.7Z" fill="#F7B00A"/>
<path d="M166.085 184.657C165.472 170.041 167.019 153.796 167.036 153.63L167.588 153.685C167.588 153.851 166.03 170.058 166.643 184.629L166.085 184.657Z" fill="#F7B00A"/>
<path d="M167.229 185.507C168.229 179.274 170.677 175.732 172.55 173.859C173.629 172.715 174.951 171.825 176.418 171.257L176.285 170.814C176.208 170.814 168.743 173.213 166.775 185.435L167.229 185.507Z" fill="#F7B00A"/>
<g opacity="0.3">
<path d="M161.864 185.099C161.814 177.191 159.465 172.34 157.498 169.665C156.383 168.044 154.92 166.692 153.216 165.709L153.464 165.189C153.553 165.234 162.344 169.61 162.444 185.082L161.864 185.099Z" fill="white"/>
<path d="M164.146 183.7L163.593 183.651C165.859 157.989 148.674 148.971 148.524 148.883L148.784 148.369C148.939 148.458 166.45 157.652 164.146 183.7Z" fill="white"/>
<path d="M166.085 184.657C165.472 170.041 167.019 153.796 167.036 153.63L167.588 153.685C167.588 153.851 166.03 170.058 166.643 184.629L166.085 184.657Z" fill="white"/>
<path d="M167.229 185.507C168.229 179.274 170.677 175.732 172.55 173.859C173.629 172.715 174.951 171.825 176.418 171.257L176.285 170.814C176.208 170.814 168.743 173.213 166.775 185.435L167.229 185.507Z" fill="white"/>
</g>
<path d="M150.436 149.519C150.436 149.519 146.618 139.799 141.131 147.021C136.677 152.884 141.131 159.305 141.131 159.305C141.131 159.305 165.018 159.907 160.747 150.79C158.1 145.153 150.436 149.519 150.436 149.519Z" fill="#F7B00A"/>
<g opacity="0.5">
<path d="M149.657 149.961C149.657 149.961 142.617 148.856 142.578 149.409C142.54 149.961 148.751 150.21 148.17 150.978C147.59 151.746 141.606 152.409 141.54 153.144C141.473 153.879 147.148 152.089 146.894 152.741C146.64 153.393 142.849 156.437 142.788 157.244C142.728 158.051 146.347 153.807 146.778 154.288C147.209 154.769 147.43 158.614 147.795 157.73C148.159 156.846 147.717 152.967 148.59 152.205C149.463 151.442 154.586 156.288 155.746 155.636C156.907 154.984 150.066 152.282 149.657 149.961Z" fill="white"/>
<path d="M153.337 150.348C153.337 150.348 159.194 150.425 159.371 152.005C159.548 153.586 158.26 151.911 153.337 150.348Z" fill="white"/>
</g>
<path d="M152.514 184.612L155.232 199.382C155.37 200.136 155.768 200.817 156.357 201.308C156.946 201.799 157.687 202.068 158.454 202.068H169.035C169.802 202.068 170.544 201.799 171.132 201.308C171.721 200.817 172.119 200.136 172.257 199.382L174.981 184.612C175.031 184.338 175.02 184.055 174.95 183.785C174.879 183.515 174.749 183.264 174.571 183.05C174.392 182.835 174.168 182.662 173.915 182.544C173.663 182.425 173.387 182.364 173.108 182.363H154.392C154.112 182.362 153.836 182.422 153.582 182.54C153.328 182.658 153.103 182.831 152.923 183.045C152.744 183.26 152.614 183.512 152.543 183.783C152.472 184.054 152.462 184.337 152.514 184.612Z" fill="#F7B00A"/>
<path d="M150.862 166.56C150.862 166.56 144.297 160.996 143.126 168.378C142.181 174.368 147.9 177.297 147.9 177.297C147.9 177.297 165.477 168.456 158.819 163.482C154.73 160.421 150.862 166.56 150.862 166.56Z" fill="#F7B00A"/>
<path opacity="0.2" d="M150.862 166.56C150.862 166.56 144.297 160.996 143.126 168.378C142.181 174.368 147.9 177.297 147.9 177.297C147.9 177.297 165.477 168.456 158.819 163.482C154.73 160.421 150.862 166.56 150.862 166.56Z" fill="black"/>
<g opacity="0.5">
<path d="M150.475 167.201C150.475 167.201 144.949 169.152 145.126 169.566C145.303 169.981 149.917 167.743 149.795 168.527C149.674 169.312 145.59 172.125 145.834 172.683C146.077 173.241 149.492 169.732 149.563 170.301C149.635 170.87 148.066 174.561 148.337 175.175C148.607 175.788 149.58 171.307 150.077 171.473C150.575 171.638 152.243 174.357 152.16 173.572C152.078 172.788 150.243 170.146 150.586 169.257C150.928 168.367 156.531 169.887 157.117 168.958C157.703 168.03 151.669 168.71 150.475 167.201Z" fill="white"/>
<path d="M153.288 166.046C153.288 166.046 157.57 163.836 158.311 164.891C159.051 165.946 157.488 165.261 153.288 166.046Z" fill="white"/>
</g>
<path d="M173.445 151.508C173.445 151.508 181.065 145.043 182.425 153.624C183.53 160.587 176.871 163.985 176.871 163.985C176.871 163.985 156.426 153.68 164.162 147.916C168.947 144.374 173.445 151.508 173.445 151.508Z" fill="#F7B00A"/>
<path opacity="0.3" d="M173.445 151.508C173.445 151.508 181.065 145.043 182.425 153.624C183.53 160.587 176.871 163.985 176.871 163.985C176.871 163.985 156.426 153.68 164.162 147.916C168.947 144.374 173.445 151.508 173.445 151.508Z" fill="black"/>
<g opacity="0.5">
<path d="M173.893 152.281C173.893 152.281 180.325 154.552 180.109 155.044C179.894 155.536 174.539 152.922 174.678 153.834C174.816 154.746 179.568 158.011 179.286 158.663C179.004 159.315 175.037 155.232 174.954 155.901C174.871 156.569 176.689 160.874 176.374 161.564C176.059 162.255 174.932 157.05 174.352 157.26C173.771 157.47 171.837 160.614 171.931 159.702C172.025 158.791 174.142 155.718 173.76 154.685C173.379 153.652 166.853 155.42 166.168 154.337C165.483 153.254 172.501 154.005 173.893 152.281Z" fill="white"/>
<path d="M170.61 150.911C170.61 150.911 165.637 148.325 164.77 149.574C163.902 150.823 165.742 150 170.61 150.911Z" fill="white"/>
</g>
<path d="M177.915 171.069C177.915 171.069 183.054 165.798 184.646 171.992C185.933 177.02 181.291 179.977 181.291 179.977C181.291 179.977 165.61 173.832 170.881 169.058C174.125 166.129 177.915 171.069 177.915 171.069Z" fill="#F7B00A"/>
<path opacity="0.4" d="M177.915 171.069C177.915 171.069 183.054 165.798 184.646 171.992C185.933 177.02 181.291 179.977 181.291 179.977C181.291 179.977 165.61 173.832 170.881 169.058C174.125 166.129 177.915 171.069 177.915 171.069Z" fill="black"/>
<g opacity="0.5">
<path d="M178.297 171.566C178.297 171.566 183.165 172.782 183.043 173.152C182.922 173.522 178.816 171.981 178.977 172.644C179.137 173.307 182.845 175.368 182.69 175.86C182.535 176.352 179.336 173.65 179.325 174.13C179.314 174.611 180.938 177.645 180.756 178.186C180.573 178.728 179.385 174.976 178.977 175.169C178.568 175.363 177.363 177.805 177.369 177.131C177.374 176.457 178.728 174.053 178.369 173.324C178.01 172.594 173.351 174.34 172.777 173.594C172.202 172.848 177.396 172.948 178.297 171.566Z" fill="white"/>
<path d="M175.794 170.809C175.794 170.809 171.97 169.257 171.423 170.257C170.876 171.257 172.169 170.478 175.794 170.809Z" fill="white"/>
</g>
<path d="M211.014 114.364H171.611C171.16 114.373 170.712 114.285 170.298 114.106C169.884 113.928 169.513 113.664 169.209 113.331C168.905 112.998 168.676 112.604 168.537 112.175C168.397 111.746 168.351 111.293 168.4 110.845L170.522 86.5757C170.619 85.6216 171.062 84.7361 171.768 84.0866C172.473 83.437 173.392 83.0684 174.351 83.0503H213.755C214.206 83.0421 214.654 83.1302 215.069 83.3088C215.484 83.4873 215.856 83.7522 216.16 84.0858C216.464 84.4194 216.694 84.814 216.834 85.2433C216.974 85.6727 217.02 86.1269 216.971 86.5757L214.844 110.839C214.748 111.794 214.305 112.68 213.599 113.33C212.893 113.979 211.973 114.348 211.014 114.364Z" fill="#263238"/>
<path d="M187.795 96.7487C187.618 98.4896 186.809 100.105 185.521 101.29C184.232 102.474 182.555 103.145 180.805 103.175C179.982 103.19 179.165 103.03 178.409 102.704C177.653 102.379 176.975 101.896 176.42 101.288C175.865 100.68 175.446 99.9605 175.191 99.1777C174.937 98.395 174.852 97.5669 174.942 96.7487C175.127 95.0115 175.939 93.4012 177.226 92.2194C178.512 91.0375 180.185 90.365 181.932 90.3278L182.219 87.04C179.577 87.0872 177.043 88.1011 175.097 89.8901C173.151 91.6791 171.928 94.1191 171.66 96.7487C171.524 97.9835 171.653 99.2331 172.037 100.415C172.421 101.596 173.052 102.682 173.888 103.601C174.725 104.52 175.747 105.25 176.887 105.743C178.027 106.237 179.259 106.482 180.501 106.463C183.145 106.416 185.679 105.401 187.625 103.611C189.571 101.821 190.793 99.3792 191.061 96.7487H187.795Z" fill="#F7B00A"/>
<path d="M192.232 95.3285C192.368 94.0936 192.239 92.844 191.855 91.6627C191.471 90.4813 190.84 89.3952 190.003 88.4764C189.167 87.5577 188.145 86.8273 187.005 86.3339C185.865 85.8404 184.633 85.5951 183.391 85.6143L183.104 88.9297C183.926 88.9154 184.743 89.0765 185.498 89.4022C186.254 89.7279 186.932 90.2108 187.486 90.8187C188.041 91.4266 188.46 92.1457 188.715 92.928C188.97 93.7104 189.056 94.5381 188.966 95.3561L192.232 95.3285Z" fill="#F7B00A"/>
<path opacity="0.7" d="M192.232 95.3285C192.368 94.0936 192.239 92.844 191.855 91.6627C191.471 90.4813 190.84 89.3952 190.003 88.4764C189.167 87.5577 188.145 86.8273 187.005 86.3339C185.865 85.8404 184.633 85.5951 183.391 85.6143L183.104 88.9297C183.926 88.9154 184.743 89.0765 185.498 89.4022C186.254 89.7279 186.932 90.2108 187.486 90.8187C188.041 91.4266 188.46 92.1457 188.715 92.928C188.97 93.7104 189.056 94.5381 188.966 95.3561L192.232 95.3285Z" fill="white"/>
<path d="M184.187 96.749C184.106 97.5418 183.738 98.2775 183.151 98.8171C182.565 99.3567 181.801 99.6628 181.004 99.6776C180.63 99.6838 180.258 99.6101 179.914 99.4615C179.57 99.3129 179.261 99.0928 179.009 98.8158C178.756 98.5388 178.566 98.2112 178.45 97.8549C178.333 97.4985 178.294 97.1216 178.335 96.749C178.416 95.9568 178.785 95.2217 179.372 94.683C179.958 94.1443 180.722 93.8394 181.518 93.8259L181.645 92.334C180.443 92.3562 179.29 92.8183 178.405 93.6329C177.52 94.4474 176.965 95.558 176.843 96.7545C176.781 97.3169 176.84 97.8861 177.015 98.4242C177.19 98.9623 177.477 99.4569 177.859 99.8751C178.24 100.293 178.706 100.626 179.225 100.85C179.745 101.074 180.306 101.185 180.872 101.175C182.075 101.154 183.229 100.693 184.115 99.878C185.001 99.0633 185.557 97.952 185.679 96.7545L184.187 96.749Z" fill="#F7B00A"/>
<path opacity="0.7" d="M184.187 96.749C184.106 97.5418 183.738 98.2775 183.151 98.8171C182.565 99.3567 181.801 99.6628 181.004 99.6776C180.63 99.6838 180.258 99.6101 179.914 99.4615C179.57 99.3129 179.261 99.0928 179.009 98.8158C178.756 98.5388 178.566 98.2112 178.45 97.8549C178.333 97.4985 178.294 97.1216 178.335 96.749C178.416 95.9568 178.785 95.2217 179.372 94.683C179.958 94.1443 180.722 93.8394 181.518 93.8259L181.645 92.334C180.443 92.3562 179.29 92.8183 178.405 93.6329C177.52 94.4474 176.965 95.558 176.843 96.7545C176.781 97.3169 176.84 97.8861 177.015 98.4242C177.19 98.9623 177.477 99.4569 177.859 99.8751C178.24 100.293 178.706 100.626 179.225 100.85C179.745 101.074 180.306 101.185 180.872 101.175C182.075 101.154 183.229 100.693 184.115 99.878C185.001 99.0633 185.557 97.952 185.679 96.7545L184.187 96.749Z" fill="white"/>
<path d="M186.203 96.1019C186.266 95.539 186.207 94.9694 186.032 94.4309C185.856 93.8925 185.568 93.3976 185.186 92.9793C184.805 92.5609 184.338 92.2288 183.818 92.005C183.298 91.7812 182.736 91.6709 182.17 91.6813L182.021 93.1567C182.395 93.1507 182.766 93.2242 183.11 93.3725C183.453 93.5207 183.761 93.7403 184.014 94.0167C184.266 94.2931 184.457 94.62 184.573 94.9756C184.69 95.3313 184.729 95.7077 184.689 96.0798L186.203 96.1019Z" fill="#F7B00A"/>
<path d="M205.146 87.0401L204.859 90.3279C205.681 90.3128 206.498 90.4731 207.253 90.7982C208.009 91.1232 208.687 91.6056 209.242 92.2131C209.796 92.8206 210.215 93.5393 210.47 94.3214C210.726 95.1035 210.811 95.931 210.722 96.7487C210.545 98.4888 209.736 100.104 208.449 101.288C207.162 102.472 205.486 103.144 203.737 103.175C202.914 103.191 202.097 103.031 201.34 102.706C200.583 102.381 199.905 101.898 199.35 101.29C198.795 100.682 198.376 99.9619 198.122 99.1787C197.867 98.3956 197.783 97.5671 197.874 96.7487C198.041 95.0041 198.853 93.3845 200.151 92.2066L198.035 89.8858C196.072 91.6649 194.842 94.1118 194.587 96.7487C194.451 97.9836 194.579 99.2332 194.964 100.415C195.348 101.596 195.979 102.682 196.815 103.601C197.651 104.52 198.673 105.25 199.814 105.743C200.954 106.237 202.186 106.482 203.428 106.463C206.071 106.414 208.605 105.399 210.551 103.609C212.496 101.819 213.719 99.3788 213.987 96.7487C214.122 95.5143 213.993 94.2653 213.608 93.0846C213.224 91.9039 212.593 90.8185 211.757 89.9004C210.92 88.9822 209.899 88.2524 208.759 87.7593C207.619 87.2661 206.388 87.021 205.146 87.0401Z" fill="#F7B00A"/>
<path opacity="0.7" d="M205.146 87.0401L204.859 90.3279C205.681 90.3128 206.498 90.4731 207.253 90.7982C208.009 91.1232 208.687 91.6056 209.242 92.2131C209.796 92.8206 210.215 93.5393 210.47 94.3214C210.726 95.1035 210.811 95.931 210.722 96.7487C210.545 98.4888 209.736 100.104 208.449 101.288C207.162 102.472 205.486 103.144 203.737 103.175C202.914 103.191 202.097 103.031 201.34 102.706C200.583 102.381 199.905 101.898 199.35 101.29C198.795 100.682 198.376 99.9619 198.122 99.1787C197.867 98.3956 197.783 97.5671 197.874 96.7487C198.041 95.0041 198.853 93.3845 200.151 92.2066L198.035 89.8858C196.072 91.6649 194.842 94.1118 194.587 96.7487C194.451 97.9836 194.579 99.2332 194.964 100.415C195.348 101.596 195.979 102.682 196.815 103.601C197.651 104.52 198.673 105.25 199.814 105.743C200.954 106.237 202.186 106.482 203.428 106.463C206.071 106.414 208.605 105.399 210.551 103.609C212.496 101.819 213.719 99.3788 213.987 96.7487C214.122 95.5143 213.993 94.2653 213.608 93.0846C213.224 91.9039 212.593 90.8185 211.757 89.9004C210.92 88.9822 209.899 88.2524 208.759 87.7593C207.619 87.2661 206.388 87.021 205.146 87.0401Z" fill="white"/>
<path d="M197.398 88.0844L199.52 90.4107C200.797 89.2136 202.478 88.5409 204.228 88.5264L204.516 85.2441C201.871 85.2663 199.331 86.2799 197.398 88.0844Z" fill="#F7B00A"/>
<path opacity="0.3" d="M197.398 88.0844L199.52 90.4107C200.797 89.2136 202.478 88.5409 204.228 88.5264L204.516 85.2441C201.871 85.2663 199.331 86.2799 197.398 88.0844Z" fill="black"/>
<path d="M204.71 92.0521L204.572 93.6214C204.965 93.6134 205.356 93.6896 205.718 93.8449C206.079 94.0003 206.404 94.2311 206.669 94.522C206.934 94.813 207.134 95.1572 207.256 95.5317C207.377 95.9063 207.417 96.3024 207.373 96.6936C207.289 97.5208 206.905 98.2887 206.295 98.8534C205.684 99.418 204.889 99.7405 204.058 99.7604C203.665 99.7683 203.274 99.6922 202.913 99.5372C202.552 99.3822 202.227 99.1518 201.962 98.8615C201.697 98.5712 201.497 98.2277 201.375 97.8538C201.253 97.48 201.213 97.0844 201.256 96.6936C201.339 95.8567 201.733 95.0814 202.361 94.522L201.35 93.4169C200.408 94.2662 199.817 95.4367 199.692 96.6992C199.627 97.2897 199.688 97.8874 199.872 98.4523C200.056 99.0172 200.359 99.5364 200.759 99.9752C201.16 100.414 201.65 100.762 202.195 100.997C202.741 101.231 203.331 101.347 203.925 101.335C205.187 101.313 206.398 100.829 207.328 99.9751C208.257 99.1208 208.842 97.9553 208.97 96.6992C209.036 96.1056 208.975 95.5046 208.79 94.9368C208.605 94.3689 208.3 93.8473 207.896 93.407C207.493 92.9668 206.999 92.618 206.45 92.3843C205.9 92.1506 205.307 92.0373 204.71 92.0521Z" fill="#F7B00A"/>
<path d="M201.007 92.527L202.018 93.6321C202.632 93.0623 203.435 92.7412 204.273 92.7314L204.405 91.1621C203.142 91.1759 201.929 91.6629 201.007 92.527Z" fill="#F7B00A"/>
<path opacity="0.3" d="M201.007 92.527L202.018 93.6321C202.632 93.0623 203.435 92.7412 204.273 92.7314L204.405 91.1621C203.142 91.1759 201.929 91.6629 201.007 92.527Z" fill="black"/>
<path d="M176.042 110.712C175.91 110.715 175.778 110.689 175.657 110.636C175.535 110.584 175.426 110.506 175.336 110.409C175.247 110.311 175.18 110.195 175.138 110.07C175.097 109.944 175.083 109.811 175.097 109.679C175.125 109.402 175.252 109.145 175.456 108.955C175.659 108.765 175.924 108.655 176.202 108.646C176.335 108.643 176.466 108.669 176.588 108.722C176.709 108.774 176.818 108.851 176.908 108.949C176.997 109.047 177.065 109.162 177.106 109.288C177.147 109.414 177.161 109.547 177.147 109.679C177.118 109.955 176.99 110.212 176.787 110.402C176.584 110.592 176.32 110.702 176.042 110.712Z" fill="white"/>
<path d="M186.64 110.204H178.904C178.836 110.206 178.769 110.193 178.707 110.167C178.645 110.141 178.589 110.101 178.543 110.052C178.498 110.002 178.463 109.943 178.443 109.878C178.422 109.814 178.415 109.746 178.423 109.679C178.423 109.532 178.481 109.392 178.585 109.288C178.689 109.185 178.829 109.126 178.976 109.126H186.712C186.782 109.124 186.852 109.137 186.916 109.164C186.981 109.192 187.038 109.234 187.085 109.287C187.131 109.34 187.164 109.403 187.183 109.471C187.202 109.539 187.205 109.61 187.192 109.679C187.185 109.821 187.124 109.954 187.021 110.052C186.918 110.15 186.782 110.204 186.64 110.204Z" fill="white"/>
<path d="M184.513 112.276H178.733C178.663 112.278 178.594 112.264 178.53 112.236C178.466 112.208 178.409 112.166 178.363 112.113C178.317 112.06 178.283 111.998 178.264 111.931C178.245 111.863 178.241 111.793 178.252 111.724C178.26 111.58 178.321 111.444 178.423 111.342C178.525 111.24 178.661 111.179 178.805 111.171H184.59C184.66 111.169 184.73 111.183 184.794 111.211C184.858 111.239 184.915 111.281 184.961 111.334C185.007 111.387 185.04 111.449 185.06 111.517C185.079 111.584 185.083 111.655 185.071 111.724C185.062 111.868 185 112.004 184.897 112.106C184.794 112.208 184.658 112.268 184.513 112.276Z" fill="white"/>
<path d="M198.443 110.712C198.31 110.715 198.178 110.69 198.056 110.638C197.934 110.586 197.824 110.509 197.734 110.411C197.644 110.313 197.576 110.197 197.534 110.071C197.493 109.945 197.478 109.811 197.493 109.679C197.521 109.402 197.648 109.145 197.851 108.955C198.054 108.765 198.32 108.655 198.598 108.646C198.73 108.643 198.862 108.669 198.983 108.722C199.105 108.774 199.214 108.851 199.303 108.949C199.393 109.047 199.46 109.162 199.501 109.288C199.543 109.414 199.557 109.547 199.543 109.679C199.514 109.954 199.387 110.21 199.185 110.4C198.983 110.59 198.72 110.701 198.443 110.712Z" fill="white"/>
<path d="M209.042 110.204H201.306C201.238 110.205 201.172 110.192 201.11 110.165C201.048 110.139 200.992 110.099 200.947 110.05C200.902 110 200.867 109.941 200.846 109.877C200.825 109.813 200.818 109.746 200.825 109.679C200.833 109.535 200.894 109.399 200.996 109.297C201.098 109.195 201.233 109.134 201.377 109.126H209.113C209.184 109.124 209.254 109.137 209.318 109.164C209.383 109.192 209.44 109.234 209.486 109.287C209.532 109.34 209.566 109.403 209.585 109.471C209.603 109.539 209.607 109.61 209.594 109.679C209.587 109.821 209.526 109.954 209.423 110.052C209.32 110.15 209.183 110.204 209.042 110.204Z" fill="white"/>
<path d="M206.914 112.276H201.135C201.065 112.278 200.995 112.264 200.931 112.236C200.867 112.208 200.81 112.166 200.764 112.113C200.718 112.06 200.685 111.998 200.665 111.931C200.646 111.863 200.642 111.793 200.654 111.724C200.662 111.58 200.723 111.444 200.824 111.342C200.926 111.24 201.062 111.179 201.206 111.171H206.992C207.062 111.169 207.131 111.183 207.195 111.211C207.259 111.239 207.316 111.281 207.362 111.334C207.408 111.387 207.442 111.449 207.461 111.517C207.48 111.584 207.484 111.655 207.473 111.724C207.463 111.868 207.401 112.004 207.298 112.106C207.196 112.208 207.059 112.268 206.914 112.276Z" fill="white"/>
<path d="M160.144 127.598H101.113C100.663 127.607 100.215 127.519 99.8007 127.34C99.3864 127.162 99.0147 126.898 98.7105 126.565C98.4063 126.232 98.1765 125.838 98.0363 125.409C97.8961 124.98 97.8488 124.527 97.8975 124.079L101.18 86.5756C101.277 85.6215 101.72 84.736 102.426 84.0865C103.131 83.4369 104.05 83.0683 105.009 83.0502H164.046C164.497 83.0428 164.944 83.1315 165.358 83.3104C165.772 83.4893 166.143 83.7543 166.447 84.0878C166.751 84.4213 166.98 84.8156 167.119 85.2446C167.259 85.6736 167.305 86.1273 167.256 86.5756L163.979 124.101C163.876 125.051 163.429 125.93 162.723 126.574C162.017 127.218 161.1 127.582 160.144 127.598Z" fill="#F7B00A"/>
<path opacity="0.7" d="M160.144 127.598H101.113C100.663 127.607 100.215 127.519 99.8007 127.34C99.3864 127.162 99.0147 126.898 98.7105 126.565C98.4063 126.232 98.1765 125.838 98.0363 125.409C97.8961 124.98 97.8488 124.527 97.8975 124.079L101.18 86.5756C101.277 85.6215 101.72 84.736 102.426 84.0865C103.131 83.4369 104.05 83.0683 105.009 83.0502H164.046C164.497 83.0428 164.944 83.1315 165.358 83.3104C165.772 83.4893 166.143 83.7543 166.447 84.0878C166.751 84.4213 166.98 84.8156 167.119 85.2446C167.259 85.6736 167.305 86.1273 167.256 86.5756L163.979 124.101C163.876 125.051 163.429 125.93 162.723 126.574C162.017 127.218 161.1 127.582 160.144 127.598Z" fill="white"/>
<path d="M103.578 116.386H102.08L104.086 93.4658H105.583L103.578 116.386Z" fill="#F7B00A"/>
<path d="M105.705 116.387H104.202L105.678 99.5283H107.18L105.705 116.387Z" fill="#263238"/>
<path d="M109.076 116.386H107.578L108.54 105.368H110.037L109.076 116.386Z" fill="#F7B00A"/>
<path d="M111.198 116.387H109.7L110.85 103.247H112.347L111.198 116.387Z" fill="#263238"/>
<path d="M114.574 116.387H113.071L114.784 96.8037H116.287L114.574 116.387Z" fill="#F7B00A"/>
<path d="M116.696 116.387H115.193L116.674 99.5283H118.172L116.696 116.387Z" fill="#263238"/>
<path d="M120.067 116.387H118.569L120.045 99.5283H121.542L120.067 116.387Z" fill="#F7B00A"/>
<path d="M122.189 116.386H120.691L122.537 95.2783H124.034L122.189 116.386Z" fill="#263238"/>
<path d="M125.565 116.387H124.062L125.067 104.927H126.565L125.565 116.387Z" fill="#F7B00A"/>
<path d="M127.687 116.387H126.189L127.665 99.5283H129.162L127.687 116.387Z" fill="#263238"/>
<path d="M131.057 116.387H129.56L131.273 96.8037H132.77L131.057 116.387Z" fill="#F7B00A"/>
<path d="M133.185 116.386H131.682L133.759 92.626H135.262L133.185 116.386Z" fill="#263238"/>
<path d="M136.555 116.387H135.058L135.599 110.148H137.102L136.555 116.387Z" fill="#F7B00A"/>
<path d="M138.677 116.387H137.18L138.191 104.838H139.688L138.677 116.387Z" fill="#263238"/>
<path d="M142.048 116.386H140.551L141.518 105.368H143.015L142.048 116.386Z" fill="#F7B00A"/>
<path d="M144.175 116.387H142.672L144.567 94.748H146.065L144.175 116.387Z" fill="#263238"/>
<path d="M147.546 116.387H146.049L147.292 102.186H148.79L147.546 116.387Z" fill="#F7B00A"/>
<path d="M149.667 116.387H148.17L150.574 88.9072H152.071L149.667 116.387Z" fill="#263238"/>
<path d="M153.044 116.387H151.541L153.155 97.9365H154.658L153.044 116.387Z" fill="#F7B00A"/>
<path d="M155.165 116.387H153.668L155.143 99.5283H156.641L155.165 116.387Z" fill="#263238"/>
<path d="M158.537 116.386H157.039L159.073 93.1562H160.57L158.537 116.386Z" fill="#F7B00A"/>
<path d="M160.659 116.386H159.161L160.36 102.716H161.858L160.659 116.386Z" fill="#263238"/>
<path d="M103.004 122.642C102.815 122.646 102.627 122.61 102.454 122.536C102.28 122.462 102.124 122.352 101.996 122.212C101.869 122.073 101.772 121.909 101.713 121.729C101.655 121.55 101.635 121.36 101.655 121.172C101.699 120.774 101.886 120.405 102.18 120.134C102.475 119.863 102.858 119.708 103.258 119.697C103.447 119.692 103.635 119.729 103.809 119.803C103.983 119.877 104.14 119.988 104.267 120.128C104.395 120.268 104.491 120.433 104.55 120.613C104.608 120.793 104.627 120.984 104.606 121.172C104.561 121.569 104.374 121.936 104.079 122.206C103.785 122.476 103.403 122.631 103.004 122.642Z" fill="#263238"/>
<path d="M118.083 121.918H107.092C106.997 121.921 106.901 121.902 106.813 121.865C106.725 121.827 106.646 121.771 106.581 121.7C106.516 121.63 106.467 121.546 106.437 121.455C106.407 121.364 106.397 121.268 106.407 121.172C106.429 120.969 106.524 120.781 106.674 120.642C106.825 120.504 107.021 120.425 107.225 120.421H118.216C118.312 120.42 118.407 120.439 118.495 120.477C118.583 120.515 118.662 120.572 118.727 120.643C118.792 120.714 118.841 120.798 118.871 120.889C118.901 120.98 118.911 121.077 118.901 121.172C118.879 121.375 118.784 121.563 118.633 121.701C118.483 121.838 118.287 121.916 118.083 121.918Z" fill="#263238"/>
<path d="M115.066 124.868H106.833C106.735 124.87 106.639 124.851 106.549 124.811C106.46 124.772 106.38 124.714 106.316 124.641C106.251 124.568 106.203 124.482 106.175 124.389C106.147 124.295 106.139 124.197 106.153 124.1C106.172 123.897 106.266 123.708 106.415 123.569C106.565 123.43 106.761 123.352 106.965 123.349H115.193C115.289 123.347 115.385 123.365 115.474 123.403C115.562 123.441 115.642 123.497 115.707 123.569C115.772 123.64 115.821 123.724 115.85 123.816C115.88 123.908 115.889 124.005 115.878 124.1C115.862 124.306 115.77 124.499 115.62 124.64C115.47 124.782 115.272 124.864 115.066 124.868Z" fill="#263238"/>
<path opacity="0.3" d="M118.083 121.918H107.092C106.997 121.921 106.901 121.902 106.813 121.865C106.725 121.827 106.646 121.771 106.581 121.7C106.516 121.63 106.467 121.546 106.437 121.455C106.407 121.364 106.397 121.268 106.407 121.172C106.429 120.969 106.524 120.781 106.674 120.642C106.825 120.504 107.021 120.425 107.225 120.421H118.216C118.312 120.42 118.407 120.439 118.495 120.477C118.583 120.515 118.662 120.572 118.727 120.643C118.792 120.714 118.841 120.798 118.871 120.889C118.901 120.98 118.911 121.077 118.901 121.172C118.879 121.375 118.784 121.563 118.633 121.701C118.483 121.838 118.287 121.916 118.083 121.918Z" fill="white"/>
<path opacity="0.3" d="M115.066 124.868H106.833C106.735 124.87 106.639 124.851 106.549 124.811C106.46 124.772 106.38 124.714 106.316 124.641C106.251 124.568 106.203 124.482 106.175 124.389C106.147 124.295 106.139 124.197 106.153 124.1C106.172 123.897 106.266 123.708 106.415 123.569C106.565 123.43 106.761 123.352 106.965 123.349H115.193C115.289 123.347 115.385 123.365 115.474 123.403C115.562 123.441 115.642 123.497 115.707 123.569C115.772 123.64 115.821 123.724 115.85 123.816C115.88 123.908 115.889 124.005 115.878 124.1C115.862 124.306 115.77 124.499 115.62 124.64C115.47 124.782 115.272 124.864 115.066 124.868Z" fill="white"/>
<path d="M124.741 122.642C124.553 122.645 124.366 122.608 124.192 122.534C124.019 122.46 123.864 122.35 123.736 122.211C123.609 122.072 123.512 121.907 123.453 121.728C123.394 121.549 123.373 121.36 123.393 121.172C123.437 120.774 123.623 120.405 123.918 120.134C124.212 119.863 124.595 119.708 124.995 119.697C125.185 119.692 125.373 119.729 125.547 119.803C125.721 119.877 125.877 119.988 126.005 120.128C126.133 120.268 126.229 120.433 126.287 120.613C126.346 120.793 126.365 120.984 126.344 121.172C126.299 121.569 126.112 121.936 125.817 122.206C125.523 122.476 125.141 122.631 124.741 122.642Z" fill="#F7B00A"/>
<path opacity="0.3" d="M124.741 122.642C124.553 122.645 124.366 122.608 124.192 122.534C124.019 122.46 123.864 122.35 123.736 122.211C123.609 122.072 123.512 121.907 123.453 121.728C123.394 121.549 123.373 121.36 123.393 121.172C123.437 120.774 123.623 120.405 123.918 120.134C124.212 119.863 124.595 119.708 124.995 119.697C125.185 119.692 125.373 119.729 125.547 119.803C125.721 119.877 125.877 119.988 126.005 120.128C126.133 120.268 126.229 120.433 126.287 120.613C126.346 120.793 126.365 120.984 126.344 121.172C126.299 121.569 126.112 121.936 125.817 122.206C125.523 122.476 125.141 122.631 124.741 122.642Z" fill="black"/>
<path d="M139.815 121.918H128.825C128.729 121.921 128.634 121.902 128.546 121.865C128.457 121.827 128.378 121.771 128.313 121.7C128.249 121.63 128.2 121.546 128.17 121.455C128.14 121.364 128.129 121.268 128.14 121.172C128.161 120.969 128.256 120.781 128.407 120.642C128.557 120.504 128.753 120.425 128.957 120.421H139.948C140.044 120.42 140.139 120.439 140.228 120.477C140.316 120.515 140.395 120.572 140.46 120.643C140.524 120.714 140.573 120.798 140.603 120.889C140.633 120.98 140.643 121.077 140.633 121.172C140.612 121.375 140.516 121.563 140.366 121.701C140.215 121.838 140.019 121.916 139.815 121.918Z" fill="#263238"/>
<path d="M136.799 124.868H128.571C128.471 124.873 128.372 124.856 128.28 124.819C128.188 124.781 128.106 124.723 128.039 124.65C127.972 124.576 127.922 124.489 127.892 124.394C127.863 124.299 127.855 124.199 127.869 124.1C127.888 123.897 127.981 123.708 128.131 123.569C128.281 123.43 128.477 123.352 128.681 123.349H136.909C137.005 123.347 137.101 123.365 137.19 123.403C137.278 123.441 137.358 123.497 137.423 123.569C137.488 123.64 137.537 123.724 137.566 123.816C137.596 123.908 137.605 124.005 137.594 124.1C137.579 124.304 137.49 124.495 137.343 124.636C137.196 124.778 137.002 124.861 136.799 124.868Z" fill="#263238"/>
<path opacity="0.3" d="M139.815 121.918H128.825C128.729 121.921 128.634 121.902 128.546 121.865C128.457 121.827 128.378 121.771 128.313 121.7C128.249 121.63 128.2 121.546 128.17 121.455C128.14 121.364 128.129 121.268 128.14 121.172C128.161 120.969 128.256 120.781 128.407 120.642C128.557 120.504 128.753 120.425 128.957 120.421H139.948C140.044 120.42 140.139 120.439 140.228 120.477C140.316 120.515 140.395 120.572 140.46 120.643C140.524 120.714 140.573 120.798 140.603 120.889C140.633 120.98 140.643 121.077 140.633 121.172C140.612 121.375 140.516 121.563 140.366 121.701C140.215 121.838 140.019 121.916 139.815 121.918Z" fill="white"/>
<path opacity="0.3" d="M136.799 124.868H128.571C128.471 124.873 128.372 124.856 128.28 124.819C128.188 124.781 128.106 124.723 128.039 124.65C127.972 124.576 127.922 124.489 127.892 124.394C127.863 124.299 127.855 124.199 127.869 124.1C127.888 123.897 127.981 123.708 128.131 123.569C128.281 123.43 128.477 123.352 128.681 123.349H136.909C137.005 123.347 137.101 123.365 137.19 123.403C137.278 123.441 137.358 123.497 137.423 123.569C137.488 123.64 137.537 123.724 137.566 123.816C137.596 123.908 137.605 124.005 137.594 124.1C137.579 124.304 137.49 124.495 137.343 124.636C137.196 124.778 137.002 124.861 136.799 124.868Z" fill="white"/>
<path d="M146.474 122.642C146.285 122.645 146.098 122.608 145.925 122.534C145.752 122.46 145.597 122.349 145.47 122.21C145.343 122.071 145.247 121.907 145.189 121.728C145.13 121.549 145.11 121.359 145.131 121.172C145.175 120.774 145.361 120.405 145.656 120.134C145.95 119.863 146.333 119.707 146.733 119.697C146.922 119.693 147.11 119.73 147.283 119.804C147.457 119.879 147.612 119.99 147.739 120.13C147.866 120.27 147.962 120.435 148.02 120.614C148.078 120.794 148.097 120.984 148.076 121.172C148.031 121.569 147.844 121.936 147.55 122.206C147.255 122.476 146.873 122.631 146.474 122.642Z" fill="#F7B00A"/>
<path d="M161.575 121.918H150.557C150.462 121.921 150.367 121.902 150.279 121.865C150.191 121.827 150.112 121.771 150.047 121.7C149.983 121.63 149.934 121.546 149.905 121.455C149.876 121.364 149.866 121.267 149.878 121.172C149.897 120.969 149.99 120.78 150.14 120.641C150.29 120.503 150.486 120.424 150.69 120.421H161.68C161.777 120.42 161.872 120.439 161.96 120.477C162.048 120.515 162.127 120.572 162.192 120.643C162.257 120.714 162.306 120.798 162.336 120.889C162.366 120.98 162.376 121.077 162.366 121.172C162.345 121.371 162.254 121.555 162.109 121.692C161.964 121.829 161.775 121.909 161.575 121.918Z" fill="#263238"/>
<path d="M158.531 124.869H150.303C150.207 124.871 150.111 124.853 150.022 124.815C149.934 124.777 149.854 124.72 149.789 124.649C149.724 124.578 149.675 124.494 149.646 124.402C149.616 124.31 149.607 124.213 149.618 124.117C149.637 123.914 149.73 123.725 149.88 123.586C150.03 123.448 150.226 123.369 150.43 123.366H158.663C158.76 123.362 158.855 123.378 158.945 123.414C159.034 123.45 159.115 123.504 159.181 123.574C159.248 123.643 159.299 123.726 159.33 123.817C159.362 123.908 159.374 124.005 159.365 124.101C159.35 124.311 159.255 124.507 159.1 124.65C158.945 124.793 158.741 124.871 158.531 124.869Z" fill="#263238"/>
<path opacity="0.3" d="M161.575 121.918H150.557C150.462 121.921 150.367 121.902 150.279 121.865C150.191 121.827 150.112 121.771 150.047 121.7C149.983 121.63 149.934 121.546 149.905 121.455C149.876 121.364 149.866 121.267 149.878 121.172C149.897 120.969 149.99 120.78 150.14 120.641C150.29 120.503 150.486 120.424 150.69 120.421H161.68C161.777 120.42 161.872 120.439 161.96 120.477C162.048 120.515 162.127 120.572 162.192 120.643C162.257 120.714 162.306 120.798 162.336 120.889C162.366 120.98 162.376 121.077 162.366 121.172C162.345 121.371 162.254 121.555 162.109 121.692C161.964 121.829 161.775 121.909 161.575 121.918Z" fill="white"/>
<path opacity="0.3" d="M158.531 124.869H150.303C150.207 124.871 150.111 124.853 150.022 124.815C149.934 124.777 149.854 124.72 149.789 124.649C149.724 124.578 149.675 124.494 149.646 124.402C149.616 124.31 149.607 124.213 149.618 124.117C149.637 123.914 149.73 123.725 149.88 123.586C150.03 123.448 150.226 123.369 150.43 123.366H158.663C158.76 123.362 158.855 123.378 158.945 123.414C159.034 123.45 159.115 123.504 159.181 123.574C159.248 123.643 159.299 123.726 159.33 123.817C159.362 123.908 159.374 124.005 159.365 124.101C159.35 124.311 159.255 124.507 159.1 124.65C158.945 124.793 158.741 124.871 158.531 124.869Z" fill="white"/>
<path d="M220.015 79.5254H185.69C185.239 79.5335 184.791 79.4456 184.377 79.2674C183.963 79.0891 183.591 78.8248 183.287 78.4918C182.982 78.1588 182.753 77.7649 182.612 77.3362C182.472 76.9075 182.425 76.4539 182.474 76.0056L184.297 55.1571C184.394 54.2035 184.838 53.3187 185.543 52.67C186.249 52.0214 187.168 51.6539 188.126 51.6372H222.452C222.903 51.6291 223.351 51.7171 223.765 51.8953C224.179 52.0735 224.551 52.3379 224.855 52.6709C225.159 53.0038 225.389 53.3978 225.529 53.8264C225.669 54.2551 225.717 54.7087 225.668 55.1571L223.845 76.0277C223.742 76.9772 223.297 77.8568 222.592 78.5009C221.886 79.145 220.97 79.5094 220.015 79.5254Z" fill="#F7B00A"/>
<path d="M200.526 64.2412C200.35 65.9603 199.551 67.5555 198.279 68.726C197.008 69.8965 195.352 70.5616 193.625 70.5957C192.811 70.61 192.004 70.4508 191.256 70.1288C190.509 69.8068 189.839 69.3293 189.291 68.7281C188.742 68.1269 188.328 67.4158 188.076 66.6422C187.824 65.8685 187.739 65.05 187.828 64.2412C188.002 62.5212 188.801 60.9246 190.073 59.7536C191.344 58.5826 193.001 57.9184 194.73 57.8866C195.543 57.8723 196.351 58.0315 197.098 58.3535C197.845 58.6756 198.515 59.1531 199.064 59.7542C199.612 60.3554 200.026 61.0665 200.278 61.8402C200.53 62.6138 200.615 63.4323 200.526 64.2412Z" fill="#F7B00A"/>
<path opacity="0.7" d="M200.526 64.2412C200.35 65.9603 199.551 67.5555 198.279 68.726C197.008 69.8965 195.352 70.5616 193.625 70.5957C192.811 70.61 192.004 70.4508 191.256 70.1288C190.509 69.8068 189.839 69.3293 189.291 68.7281C188.742 68.1269 188.328 67.4158 188.076 66.6422C187.824 65.8685 187.739 65.05 187.828 64.2412C188.002 62.5212 188.801 60.9246 190.073 59.7536C191.344 58.5826 193.001 57.9184 194.73 57.8866C195.543 57.8723 196.351 58.0315 197.098 58.3535C197.845 58.6756 198.515 59.1531 199.064 59.7542C199.612 60.3554 200.026 61.0665 200.278 61.8402C200.53 62.6138 200.615 63.4323 200.526 64.2412Z" fill="white"/>
<path d="M196.094 63.1144C195.973 64.5069 195.442 65.6342 194.05 65.6342C192.657 65.6342 192.32 64.529 192.442 63.1144C192.563 61.6999 193.099 60.5947 194.492 60.5947C195.884 60.5947 196.216 61.722 196.094 63.1144Z" fill="#263238"/>
<path d="M193.979 66.4189C191.067 66.4189 189.486 67.0655 188.74 68.0159C189.27 68.8209 189.995 69.4793 190.847 69.9303C191.698 70.3813 192.65 70.6104 193.614 70.5964C194.637 70.5829 195.644 70.3447 196.564 69.8988C197.485 69.4529 198.296 68.8101 198.941 68.0159C198.36 67.0655 196.896 66.4189 193.979 66.4189Z" fill="#263238"/>
<path d="M215.495 57.1467H205.179C205.067 57.149 204.956 57.1273 204.853 57.0832C204.75 57.039 204.658 56.9734 204.583 56.8907C204.507 56.8081 204.45 56.7102 204.416 56.6038C204.382 56.4973 204.37 56.3848 204.383 56.2736C204.407 56.0371 204.517 55.8176 204.692 55.6567C204.868 55.4958 205.096 55.4047 205.333 55.4006H215.65C215.762 55.3983 215.873 55.4199 215.976 55.4641C216.078 55.5082 216.17 55.5738 216.246 55.6565C216.321 55.7392 216.378 55.837 216.412 55.9435C216.447 56.0499 216.458 56.1625 216.446 56.2736C216.422 56.5106 216.313 56.7308 216.137 56.8919C215.962 57.053 215.733 57.1437 215.495 57.1467Z" fill="white"/>
<path d="M218.247 63.5945H204.615C204.503 63.5968 204.392 63.5751 204.289 63.531C204.187 63.4868 204.095 63.4212 204.019 63.3385C203.944 63.2559 203.887 63.158 203.853 63.0516C203.818 62.9452 203.807 62.8326 203.819 62.7214C203.844 62.4843 203.954 62.2642 204.129 62.1024C204.304 61.9407 204.532 61.8483 204.77 61.8428H218.402C218.514 61.8414 218.625 61.8637 218.728 61.9085C218.831 61.9533 218.923 62.0194 218.998 62.1025C219.073 62.1856 219.13 62.2838 219.164 62.3905C219.199 62.4972 219.21 62.61 219.197 62.7214C219.174 62.9584 219.065 63.1786 218.889 63.3397C218.714 63.5008 218.485 63.5915 218.247 63.5945Z" fill="white"/>
<path d="M220.728 66.8166H204.333C204.221 66.8189 204.11 66.7972 204.007 66.7531C203.904 66.7089 203.812 66.6433 203.737 66.5607C203.662 66.478 203.605 66.3801 203.57 66.2737C203.536 66.1673 203.525 66.0547 203.537 65.9435C203.562 65.707 203.672 65.4875 203.847 65.3266C204.022 65.1658 204.25 65.0746 204.488 65.0705H220.882C220.994 65.0682 221.105 65.0898 221.208 65.134C221.311 65.1781 221.403 65.2437 221.478 65.3264C221.554 65.4091 221.611 65.5069 221.645 65.6134C221.679 65.7198 221.691 65.8324 221.678 65.9435C221.655 66.1806 221.545 66.4007 221.37 66.5618C221.194 66.7229 220.966 66.8136 220.728 66.8166Z" fill="white"/>
<path d="M219.341 70.0438H204.052C203.94 70.0453 203.828 70.0229 203.726 69.9781C203.623 69.9334 203.531 69.8672 203.455 69.7841C203.38 69.701 203.323 69.6029 203.289 69.4961C203.255 69.3894 203.243 69.2766 203.256 69.1652C203.281 68.9291 203.392 68.7103 203.567 68.5497C203.742 68.389 203.969 68.2975 204.206 68.2922H219.496C219.608 68.2899 219.719 68.3115 219.822 68.3557C219.924 68.3998 220.017 68.4654 220.092 68.5481C220.167 68.6308 220.224 68.7286 220.259 68.8351C220.293 68.9415 220.304 69.0541 220.292 69.1652C220.269 69.4028 220.159 69.6236 219.984 69.7856C219.809 69.9476 219.58 70.0395 219.341 70.0438Z" fill="white"/>
<path d="M217.385 73.2644H203.769C203.658 73.2667 203.547 73.245 203.444 73.2009C203.341 73.1568 203.249 73.0912 203.173 73.0085C203.098 72.9258 203.041 72.8279 203.007 72.7215C202.972 72.6151 202.961 72.5025 202.974 72.3913C202.997 72.1538 203.106 71.933 203.282 71.771C203.457 71.609 203.686 71.5171 203.924 71.5128H217.556C217.668 71.5113 217.779 71.5337 217.882 71.5784C217.985 71.6232 218.077 71.6893 218.152 71.7724C218.228 71.8555 218.284 71.9537 218.319 72.0604C218.353 72.1671 218.364 72.2799 218.352 72.3913C218.327 72.6307 218.215 72.8525 218.036 73.0137C217.857 73.175 217.625 73.2643 217.385 73.2644Z" fill="white"/>
<path d="M218.778 76.4865H203.488C203.376 76.4888 203.265 76.4672 203.163 76.423C203.06 76.3789 202.968 76.3133 202.892 76.2306C202.817 76.1479 202.76 76.0501 202.726 75.9436C202.691 75.8372 202.68 75.7246 202.693 75.6135C202.716 75.3764 202.825 75.1563 203.001 74.9952C203.176 74.8341 203.405 74.7434 203.643 74.7404H218.933C219.044 74.7381 219.155 74.7598 219.258 74.8039C219.361 74.848 219.453 74.9137 219.529 74.9963C219.604 75.079 219.661 75.1769 219.695 75.2833C219.73 75.3897 219.741 75.5023 219.728 75.6135C219.703 75.8496 219.592 76.0683 219.417 76.229C219.243 76.3896 219.015 76.4812 218.778 76.4865Z" fill="white"/>
<path d="M175.39 79.5252H116.348C115.897 79.5334 115.449 79.4454 115.035 79.2672C114.621 79.089 114.249 78.8246 113.945 78.4916C113.641 78.1586 113.411 77.7647 113.271 77.336C113.13 76.9074 113.083 76.4538 113.132 76.0054L116.414 38.497C116.511 37.5434 116.955 36.6585 117.66 36.0099C118.366 35.3612 119.285 34.9938 120.243 34.9771H179.258C179.709 34.9689 180.156 35.0568 180.57 35.2351C180.984 35.4134 181.355 35.6778 181.659 36.0109C181.963 36.344 182.192 36.738 182.332 37.1667C182.471 37.5954 182.518 38.0489 182.468 38.497L179.214 76.0275C179.11 76.9757 178.665 77.8538 177.961 78.4976C177.258 79.1413 176.343 79.5067 175.39 79.5252Z" fill="#F7B00A"/>
<path opacity="0.7" d="M175.39 79.5252H116.348C115.897 79.5334 115.449 79.4454 115.035 79.2672C114.621 79.089 114.249 78.8246 113.945 78.4916C113.641 78.1586 113.411 77.7647 113.271 77.336C113.13 76.9074 113.083 76.4538 113.132 76.0054L116.414 38.497C116.511 37.5434 116.955 36.6585 117.66 36.0099C118.366 35.3612 119.285 34.9938 120.243 34.9771H179.258C179.709 34.9689 180.156 35.0568 180.57 35.2351C180.984 35.4134 181.355 35.6778 181.659 36.0109C181.963 36.344 182.192 36.738 182.332 37.1667C182.471 37.5954 182.518 38.0489 182.468 38.497L179.214 76.0275C179.11 76.9757 178.665 77.8538 177.961 78.4976C177.258 79.1413 176.343 79.5067 175.39 79.5252Z" fill="white"/>
<path d="M181.252 52.6653C180.108 48.5376 178.302 44.4044 175.671 44.4044C170.698 44.4044 168.283 52.1846 165.725 60.4289C163.471 67.6676 161.139 75.1494 157.503 75.1494C152.889 75.1494 151.623 65.8939 150.402 56.9422C149.032 46.9131 147.739 37.4365 141.793 37.4365C135.848 37.4365 132.902 46.9131 129.775 56.9422C126.984 65.8939 124.106 75.1494 119.486 75.1494C117.331 75.1494 115.325 68.7727 114.27 63.1034L113.789 68.6291C114.938 72.7236 116.734 76.796 119.342 76.796C125.288 76.796 128.239 67.3195 131.361 57.2903C134.124 48.3442 137.036 39.0832 141.65 39.0832C146.264 39.0832 147.529 48.3442 148.75 57.318C150.121 67.3471 151.414 76.8237 157.359 76.8237C162.332 76.8237 164.747 69.0435 167.305 60.7992C169.56 53.5605 171.892 46.0787 175.533 46.0787C177.705 46.0787 179.727 52.5438 180.772 58.2352L181.252 52.6653Z" fill="#F7B00A"/>
<path d="M143.593 39.6326C144.589 38.6787 144.689 37.1656 143.815 36.2529C142.942 35.3403 141.426 35.3737 140.429 36.3276C139.433 37.2814 139.333 38.7945 140.207 39.7072C141.081 40.6198 142.597 40.5864 143.593 39.6326Z" fill="#263238"/>
<path d="M142.79 38.7872C143.284 38.3144 143.331 37.563 142.896 37.109C142.462 36.6549 141.709 36.6701 141.215 37.1429C140.722 37.6157 140.674 38.3671 141.109 38.8211C141.543 39.2752 142.296 39.26 142.79 38.7872Z" fill="#F7B00A"/>
<path d="M147.032 27.8713H138.743C138.31 27.8797 137.894 28.046 137.575 28.339C137.255 28.632 137.054 29.0316 137.008 29.4627L136.876 30.9767C136.854 31.1794 136.875 31.3844 136.938 31.5782C137.002 31.7719 137.106 31.95 137.243 32.1005C137.38 32.251 137.548 32.3705 137.736 32.4512C137.923 32.5318 138.125 32.5717 138.329 32.5681H141.092L141.915 33.8114C141.97 33.8846 142.04 33.944 142.122 33.9849C142.203 34.0259 142.293 34.0472 142.385 34.0472C142.476 34.0472 142.566 34.0259 142.647 33.9849C142.729 33.944 142.8 33.8846 142.854 33.8114L143.893 32.5681H146.656C147.089 32.5596 147.504 32.3931 147.822 32.1C148.141 31.8069 148.341 31.4074 148.386 30.9767L148.518 29.4627C148.541 29.2572 148.518 29.0493 148.453 28.8531C148.388 28.657 148.281 28.4772 148.14 28.3261C147.999 28.1751 147.827 28.0562 147.636 27.9777C147.444 27.8992 147.238 27.8629 147.032 27.8713Z" fill="#F7B00A"/>
<path d="M146.386 29.8719H138.854C138.801 29.873 138.748 29.8628 138.7 29.8418C138.651 29.8209 138.607 29.7897 138.572 29.7504C138.536 29.7111 138.509 29.6646 138.493 29.6141C138.477 29.5635 138.472 29.5101 138.478 29.4574C138.494 29.3498 138.546 29.2511 138.627 29.1784C138.708 29.1057 138.812 29.0636 138.92 29.0596H146.446C146.499 29.0593 146.551 29.0701 146.6 29.0914C146.648 29.1126 146.691 29.1438 146.727 29.1829C146.762 29.222 146.789 29.2682 146.805 29.3183C146.822 29.3685 146.827 29.4215 146.822 29.474C146.809 29.5816 146.758 29.6808 146.678 29.7538C146.597 29.8268 146.494 29.8687 146.386 29.8719Z" fill="#263238"/>
<path d="M142.17 31.3748H138.727C138.674 31.3759 138.621 31.3656 138.572 31.3447C138.523 31.3238 138.479 31.2928 138.443 31.2536C138.407 31.2144 138.38 31.168 138.363 31.1174C138.346 31.0669 138.34 31.0134 138.346 30.9604C138.357 30.8475 138.409 30.7427 138.493 30.6662C138.576 30.5896 138.685 30.5468 138.799 30.546H142.236C142.289 30.5448 142.342 30.5551 142.39 30.576C142.439 30.597 142.483 30.6281 142.518 30.6674C142.554 30.7067 142.581 30.7532 142.597 30.8038C142.613 30.8543 142.618 30.9078 142.612 30.9604C142.6 31.071 142.549 31.1737 142.468 31.2497C142.386 31.3258 142.281 31.3702 142.17 31.3748Z" fill="#263238"/>
<path d="M158.717 76.5701C159.713 75.6162 159.813 74.1031 158.939 73.1904C158.066 72.2778 156.55 72.3112 155.553 73.2651C154.557 74.2189 154.457 75.732 155.331 76.6447C156.205 77.5573 157.721 77.5239 158.717 76.5701Z" fill="#263238"/>
<path d="M158.321 74.9224C158.288 75.2435 158.139 75.5417 157.902 75.7606C157.665 75.9795 157.356 76.1039 157.033 76.1104C156.879 76.117 156.725 76.0901 156.583 76.0316C156.44 75.9731 156.312 75.8843 156.207 75.7713C156.101 75.6584 156.022 75.524 155.974 75.3774C155.926 75.2309 155.91 75.0756 155.928 74.9224C155.96 74.6013 156.109 74.3031 156.346 74.0842C156.584 73.8653 156.893 73.7409 157.215 73.7344C157.37 73.7278 157.523 73.7547 157.666 73.8132C157.809 73.8717 157.937 73.9605 158.042 74.0735C158.147 74.1864 158.226 74.3208 158.274 74.4674C158.323 74.6139 158.338 74.7692 158.321 74.9224Z" fill="#F7B00A"/>
<path d="M162.162 64.8048H153.873C153.44 64.8133 153.026 64.9798 152.707 65.2729C152.388 65.5661 152.188 65.9656 152.144 66.3962L152.011 67.9047C151.988 68.1078 152.009 68.3134 152.072 68.5079C152.135 68.7023 152.239 68.881 152.376 69.0322C152.514 69.1833 152.682 69.3034 152.869 69.3843C153.057 69.4653 153.26 69.5053 153.464 69.5017H156.199L157.023 70.7449C157.079 70.8172 157.15 70.8757 157.232 70.9159C157.314 70.9562 157.404 70.9771 157.495 70.9771C157.586 70.9771 157.677 70.9562 157.758 70.9159C157.84 70.8757 157.912 70.8172 157.968 70.7449L159.006 69.5017H161.742C162.176 69.4943 162.593 69.3277 162.913 69.0333C163.233 68.7389 163.433 68.3373 163.477 67.9047L163.609 66.3962C163.631 66.194 163.61 65.9895 163.547 65.7961C163.484 65.6028 163.381 65.425 163.244 65.2746C163.107 65.1241 162.94 65.0045 162.753 64.9235C162.567 64.8425 162.365 64.8021 162.162 64.8048Z" fill="#263238"/>
<path d="M161.514 66.8054H153.983C153.93 66.8066 153.877 66.7964 153.828 66.7754C153.78 66.7545 153.736 66.7233 153.7 66.684C153.665 66.6447 153.638 66.5982 153.622 66.5476C153.606 66.4971 153.601 66.4437 153.607 66.391C153.618 66.2791 153.67 66.175 153.752 66.0986C153.835 66.0222 153.942 65.9788 154.055 65.9766H161.575C161.628 65.9763 161.68 65.9871 161.729 66.0084C161.777 66.0296 161.82 66.0608 161.856 66.0999C161.891 66.139 161.918 66.1851 161.934 66.2353C161.951 66.2854 161.956 66.3385 161.951 66.391C161.942 66.5015 161.892 66.6048 161.811 66.6812C161.731 66.7576 161.625 66.8018 161.514 66.8054Z" fill="white"/>
<path d="M157.298 68.2918H153.839C153.786 68.293 153.734 68.2828 153.685 68.2618C153.636 68.2408 153.593 68.2097 153.557 68.1704C153.521 68.1311 153.494 68.0846 153.478 68.034C153.462 67.9835 153.457 67.9301 153.464 67.8774C153.476 67.7659 153.527 67.6625 153.61 67.5863C153.692 67.5102 153.799 67.4663 153.911 67.463H157.359C157.412 67.4619 157.465 67.4722 157.514 67.4931C157.563 67.514 157.607 67.5451 157.643 67.5842C157.679 67.6234 157.707 67.6698 157.723 67.7204C157.74 67.7709 157.746 67.8244 157.74 67.8774C157.73 67.9884 157.679 68.0917 157.598 68.168C157.516 68.2443 157.41 68.2883 157.298 68.2918Z" fill="white"/>
<path d="M178.02 45.0838C177.956 45.7314 177.655 46.3327 177.177 46.7737C176.698 47.2147 176.074 47.4647 175.423 47.4764C175.117 47.4822 174.813 47.4226 174.531 47.3015C174.25 47.1804 173.997 47.0006 173.79 46.7741C173.584 46.5477 173.428 46.2798 173.333 45.9883C173.238 45.6968 173.207 45.3884 173.241 45.0838C173.308 44.4376 173.609 43.8383 174.087 43.3986C174.566 42.959 175.188 42.7093 175.838 42.6967C176.144 42.691 176.447 42.7505 176.729 42.8712C177.01 42.992 177.262 43.1713 177.468 43.3971C177.675 43.6229 177.831 43.8902 177.926 44.181C178.021 44.4718 178.053 44.7796 178.02 45.0838Z" fill="#263238"/>
<path d="M176.816 45.0838C176.783 45.405 176.635 45.7032 176.397 45.9221C176.16 46.141 175.851 46.2654 175.528 46.2719C175.374 46.2785 175.22 46.2516 175.078 46.193C174.935 46.1345 174.807 46.0457 174.702 45.9328C174.597 45.8198 174.517 45.6854 174.469 45.5389C174.421 45.3923 174.405 45.2371 174.423 45.0838C174.457 44.7637 174.606 44.4668 174.843 44.2491C175.08 44.0313 175.389 43.9077 175.711 43.9013C175.864 43.8948 176.017 43.9216 176.16 43.9798C176.302 44.0381 176.43 44.1264 176.535 44.2387C176.64 44.351 176.719 44.4847 176.768 44.6305C176.816 44.7764 176.833 44.931 176.816 45.0838Z" fill="#F7B00A"/>
<path d="M180.656 34.977H172.367C171.933 34.9842 171.517 35.1501 171.198 35.4433C170.878 35.7366 170.677 36.1369 170.632 36.5684L170.5 38.0825C170.478 38.2851 170.499 38.4901 170.562 38.6839C170.626 38.8776 170.73 39.0557 170.867 39.2062C171.004 39.3567 171.172 39.4763 171.36 39.5569C171.547 39.6375 171.749 39.6774 171.953 39.6739H174.716L175.539 40.9171C175.594 40.9903 175.664 41.0497 175.746 41.0907C175.827 41.1316 175.917 41.1529 176.009 41.1529C176.1 41.1529 176.19 41.1316 176.271 41.0907C176.353 41.0497 176.424 40.9903 176.478 40.9171L177.517 39.6739H180.252C180.686 39.6667 181.102 39.5008 181.422 39.2075C181.742 38.9143 181.943 38.514 181.988 38.0825L182.12 36.5684C182.142 36.3648 182.121 36.1588 182.057 35.9643C181.993 35.7698 181.888 35.5912 181.749 35.4404C181.61 35.2897 181.441 35.1704 181.253 35.0905C181.064 35.0106 180.861 34.9719 180.656 34.977Z" fill="#F7B00A"/>
<path d="M180.01 36.9773H172.478C172.425 36.9785 172.372 36.9682 172.324 36.9473C172.275 36.9263 172.231 36.8951 172.196 36.8558C172.16 36.8165 172.133 36.77 172.117 36.7195C172.101 36.6689 172.096 36.6155 172.102 36.5629C172.113 36.4509 172.165 36.3469 172.247 36.2705C172.33 36.1941 172.437 36.1506 172.55 36.1484H180.081C180.134 36.1482 180.186 36.159 180.235 36.1803C180.283 36.2015 180.326 36.2327 180.362 36.2718C180.397 36.3109 180.424 36.357 180.44 36.4072C180.457 36.4573 180.463 36.5104 180.457 36.5629C180.448 36.6753 180.396 36.78 180.314 36.8567C180.231 36.9333 180.122 36.9763 180.01 36.9773Z" fill="#263238"/>
<path d="M175.794 38.4803H172.346C172.293 38.4806 172.24 38.4697 172.192 38.4485C172.144 38.4272 172.101 38.396 172.065 38.3569C172.03 38.3178 172.003 38.2717 171.986 38.2216C171.97 38.1714 171.964 38.1184 171.97 38.0659C171.981 37.953 172.033 37.8482 172.117 37.7716C172.2 37.6951 172.309 37.6523 172.423 37.6514H175.865C175.919 37.6504 175.971 37.6606 176.02 37.6815C176.069 37.7024 176.113 37.7335 176.149 37.7727C176.185 37.8119 176.213 37.8583 176.23 37.9088C176.246 37.9594 176.252 38.0129 176.247 38.0659C176.235 38.1783 176.182 38.2824 176.098 38.3587C176.015 38.435 175.907 38.4783 175.794 38.4803Z" fill="#263238"/>
<path d="M122.476 75.1878C122.41 75.8345 122.109 76.4345 121.631 76.8743C121.152 77.3142 120.529 77.5634 119.879 77.5749C119.574 77.5799 119.271 77.5198 118.99 77.3986C118.71 77.2775 118.458 77.0981 118.252 76.8724C118.046 76.6467 117.891 76.3797 117.796 76.0893C117.701 75.7989 117.669 75.4916 117.702 75.1878C117.767 74.5402 118.067 73.9389 118.546 73.4979C119.024 73.0569 119.648 72.8069 120.299 72.7952C120.605 72.7902 120.909 72.8504 121.19 72.9719C121.47 73.0933 121.722 73.2732 121.928 73.4996C122.134 73.726 122.29 73.9936 122.384 74.2847C122.479 74.5758 122.51 74.8837 122.476 75.1878Z" fill="#263238"/>
<path d="M121.277 75.1878C121.243 75.5089 121.093 75.8065 120.855 76.0243C120.617 76.2422 120.307 76.3653 119.984 76.3703C119.831 76.3758 119.678 76.3484 119.536 76.2899C119.394 76.2314 119.267 76.1431 119.162 76.031C119.057 75.9189 118.978 75.7856 118.929 75.6401C118.88 75.4946 118.863 75.3404 118.879 75.1878C118.912 74.8662 119.062 74.5679 119.301 74.3491C119.539 74.1303 119.849 74.0061 120.172 73.9998C120.326 73.9941 120.479 74.0216 120.621 74.0805C120.763 74.1393 120.891 74.2281 120.996 74.3409C121.101 74.4536 121.18 74.5876 121.229 74.7337C121.277 74.8799 121.294 75.0347 121.277 75.1878Z" fill="#F7B00A"/>
<path d="M125.106 65.0762H116.817C116.384 65.0846 115.969 65.2509 115.649 65.5439C115.33 65.8369 115.128 66.2365 115.082 66.6676L114.955 68.1817C114.932 68.3845 114.953 68.5899 115.016 68.784C115.079 68.9782 115.183 69.1566 115.321 69.3073C115.458 69.458 115.627 69.5776 115.814 69.6579C116.002 69.7382 116.205 69.7775 116.409 69.7731H119.171L119.995 71.0163C120.049 71.0895 120.12 71.1489 120.202 71.1899C120.283 71.2308 120.373 71.2521 120.464 71.2521C120.556 71.2521 120.646 71.2308 120.727 71.1899C120.809 71.1489 120.88 71.0895 120.934 71.0163L121.978 69.7731H124.741C125.175 69.7647 125.59 69.5984 125.91 69.3054C126.229 69.0123 126.431 68.6128 126.476 68.1817L126.603 66.6676C126.627 66.461 126.605 66.2516 126.54 66.0542C126.474 65.8568 126.366 65.6761 126.224 65.5246C126.081 65.3731 125.907 65.2546 125.714 65.1771C125.521 65.0997 125.314 65.0652 125.106 65.0762Z" fill="#263238"/>
<path d="M124.465 67.0819H116.939C116.886 67.0829 116.833 67.0727 116.784 67.0518C116.735 67.0309 116.691 66.9998 116.655 66.9606C116.619 66.9214 116.592 66.875 116.575 66.8245C116.558 66.7739 116.552 66.7204 116.558 66.6674C116.569 66.5546 116.621 66.4497 116.705 66.3732C116.788 66.2967 116.897 66.2538 117.011 66.253H124.553C124.607 66.2519 124.659 66.2622 124.708 66.2831C124.757 66.304 124.801 66.3351 124.837 66.3743C124.873 66.4135 124.901 66.4599 124.918 66.5104C124.934 66.5609 124.94 66.6145 124.935 66.6674C124.922 66.7827 124.867 66.8891 124.78 66.9658C124.693 67.0425 124.581 67.0839 124.465 67.0819Z" fill="white"/>
<path d="M120.254 68.5789H116.817C116.764 68.5792 116.712 68.5684 116.664 68.5471C116.616 68.5259 116.572 68.4947 116.537 68.4556C116.501 68.4165 116.475 68.3704 116.458 68.3202C116.442 68.2701 116.436 68.217 116.441 68.1645C116.451 68.0521 116.502 67.9473 116.585 67.8707C116.668 67.7941 116.776 67.7511 116.889 67.7501H120.337C120.39 67.7489 120.443 67.7592 120.491 67.7801C120.54 67.8011 120.584 67.8322 120.62 67.8715C120.655 67.9108 120.682 67.9573 120.698 68.0079C120.714 68.0584 120.719 68.1119 120.713 68.1645C120.702 68.2783 120.649 68.3839 120.564 68.4606C120.479 68.5373 120.369 68.5795 120.254 68.5789Z" fill="white"/>
<path d="M82.2489 65.7879L80.6575 68.5507L79.0937 71.3854C78.0659 73.2807 77.0823 75.1871 76.1872 77.11C75.7396 78.0715 75.3141 79.0274 74.9273 79.9944L74.8555 80.1657C74.8575 80.1804 74.8575 80.1953 74.8555 80.21C74.8351 80.2331 74.8183 80.2592 74.8058 80.2873C74.7764 80.3362 74.7523 80.3881 74.7339 80.442C74.693 80.6503 74.7161 80.8661 74.8002 81.0609C75.1064 81.8147 75.559 82.5002 76.1319 83.0778C76.808 83.8042 77.5277 84.4888 78.2869 85.1278L76.9939 87.8907C76.385 87.7226 75.7886 87.5121 75.2091 87.2607C74.6265 87.0103 74.0615 86.7204 73.5183 86.3932C72.2777 85.6753 71.2145 84.6876 70.4073 83.5033C69.8991 82.7498 69.558 81.8963 69.4071 81.0001C69.3435 80.5012 69.3435 79.9961 69.4071 79.4971C69.4324 79.2495 69.4749 79.0039 69.5342 78.7622L69.6226 78.403L69.6945 78.1875C70.0481 77.0548 70.4184 75.9386 70.8494 74.8721C71.6828 72.7248 72.6234 70.6205 73.6675 68.5673C74.1814 67.5451 74.7173 66.5339 75.281 65.5448C75.8446 64.5557 76.3861 63.5776 77.0437 62.5664L82.2489 65.7879Z" fill="#FFC3BD"/>
<path d="M76.8784 84.8293L79.7849 84.0723L79.9506 88.7636C79.9506 88.7636 77.6796 89.1006 76.2871 87.7082L76.8784 84.8293Z" fill="#FFC3BD"/>
<path d="M83.8963 83.2822L83.2442 87.3989L79.9509 88.7637L79.7852 84.0724L83.8963 83.2822Z" fill="#FFC3BD"/>
<path d="M95.909 43.6965C95.9698 44.017 96.1963 44.2491 96.4063 44.1993C96.6163 44.1496 96.7323 43.8623 96.666 43.5418C96.5997 43.2213 96.3787 42.9892 96.1687 43.0389C95.9587 43.0887 95.8206 43.376 95.909 43.6965Z" fill="#263238"/>
<path d="M96.1631 44.249C96.7473 45.1509 97.4519 45.9689 98.2573 46.6803C98.0701 46.8821 97.8411 47.0406 97.5862 47.1446C97.3314 47.2486 97.0569 47.2957 96.782 47.2826L96.1631 44.249Z" fill="#ED847E"/>
<path d="M94.3725 42.1546C94.3237 42.1549 94.2765 42.1372 94.2399 42.1049C94.2044 42.0688 94.1846 42.0202 94.1846 41.9695C94.1846 41.9189 94.2044 41.8703 94.2399 41.8342C94.4436 41.6011 94.7009 41.421 94.9897 41.3093C95.2785 41.1977 95.59 41.1578 95.8976 41.1932C95.9481 41.202 95.9931 41.2305 96.0227 41.2725C96.0522 41.3144 96.0638 41.3664 96.055 41.417C96.0463 41.4675 96.0177 41.5125 95.9758 41.5421C95.9338 41.5716 95.8818 41.5832 95.8313 41.5744C95.5908 41.5525 95.3486 41.5882 95.1247 41.6785C94.9008 41.7689 94.7017 41.9112 94.5438 42.0939C94.5221 42.1169 94.4953 42.1344 94.4655 42.145C94.4357 42.1555 94.4038 42.1588 94.3725 42.1546Z" fill="#263238"/>
<path d="M86.7688 48.2109C87.3214 51.1782 87.9292 56.621 85.8516 58.6048C85.8516 58.6048 86.6638 61.6163 92.184 61.6163C98.2623 61.6163 95.0795 58.6048 95.0795 58.6048C91.7641 57.8146 91.858 55.3557 92.4327 53.0459L86.7688 48.2109Z" fill="#FFC3BD"/>
<path d="M84.6532 59.152C84.2111 58.3287 83.7249 57.3838 84.7361 57.0909C85.8412 56.7649 92.986 56.1626 95.0857 56.7704C94.4392 57.9198 95.5333 59.3288 95.5333 59.3288L84.6532 59.152Z" fill="#263238"/>
<path d="M66.678 197.593C66.8418 197.651 67.0156 197.676 67.1892 197.667C67.3628 197.658 67.5328 197.614 67.6892 197.538C67.7497 197.482 67.7913 197.409 67.8082 197.329C67.825 197.249 67.8163 197.165 67.7832 197.09C67.7653 197.028 67.7337 196.97 67.6907 196.921C67.6477 196.872 67.5943 196.834 67.5345 196.808C66.9819 196.543 65.7276 197.057 65.6724 197.079C65.6559 197.087 65.642 197.1 65.6322 197.115C65.6225 197.131 65.6172 197.149 65.6171 197.167C65.6144 197.186 65.6179 197.204 65.6269 197.22C65.6359 197.236 65.6499 197.249 65.6668 197.256C65.9911 197.403 66.33 197.516 66.678 197.593ZM67.3411 196.941L67.4516 196.98C67.4872 196.994 67.5191 197.017 67.5449 197.046C67.5707 197.074 67.5898 197.108 67.6008 197.145C67.6506 197.317 67.6008 197.372 67.5621 197.388C67.3466 197.576 66.5344 197.388 65.9652 197.173C66.4023 197 66.8719 196.925 67.3411 196.952V196.941Z" fill="#F7B00A"/>
<path d="M65.6889 197.272H65.7386C66.1972 197.139 67.1808 196.437 67.1918 195.979C67.1922 195.907 67.1677 195.836 67.1224 195.78C67.0771 195.724 67.0139 195.685 66.9432 195.669C66.8736 195.646 66.8002 195.638 66.7271 195.643C66.6541 195.649 66.5829 195.669 66.5177 195.703C65.9651 195.979 65.6336 197.106 65.617 197.15C65.6082 197.164 65.6035 197.181 65.6035 197.197C65.6035 197.214 65.6082 197.23 65.617 197.244C65.6255 197.255 65.6367 197.263 65.6493 197.268C65.6619 197.272 65.6755 197.274 65.6889 197.272ZM66.8382 195.835H66.8824C66.9984 195.874 66.9984 195.935 66.9984 195.957C66.9984 196.228 66.3409 196.775 65.8933 197.001C66.0207 196.555 66.2786 196.156 66.6338 195.857C66.6981 195.83 66.7694 195.822 66.8382 195.835Z" fill="#F7B00A"/>
<path d="M96.6488 198.283C97.1682 198.283 97.671 198.211 97.8423 197.979C97.8868 197.917 97.9108 197.843 97.9108 197.766C97.9108 197.69 97.8868 197.615 97.8423 197.553C97.8093 197.498 97.7654 197.45 97.7131 197.412C97.6609 197.374 97.6014 197.347 97.5384 197.332C96.8643 197.15 95.4442 197.957 95.3834 197.99C95.3671 198.001 95.3543 198.016 95.3465 198.033C95.3386 198.051 95.3361 198.07 95.3392 198.089C95.3424 198.109 95.3516 198.127 95.3654 198.141C95.3793 198.154 95.3972 198.164 95.4165 198.167C95.8228 198.243 96.2353 198.282 96.6488 198.283ZM97.2953 197.493C97.3559 197.487 97.417 197.487 97.4776 197.493C97.5559 197.512 97.6233 197.562 97.6655 197.631C97.7373 197.747 97.7097 197.808 97.6655 197.841C97.4721 198.106 96.4498 198.112 95.6928 198.001C96.1899 197.731 96.7337 197.559 97.2953 197.493Z" fill="#F7B00A"/>
<path d="M95.4226 198.173H95.4613C95.9531 197.952 96.9256 197.068 96.8482 196.615C96.8482 196.51 96.7543 196.377 96.4891 196.349C96.3904 196.334 96.2897 196.342 96.1941 196.37C96.0986 196.399 96.0106 196.448 95.9365 196.515C95.4171 196.935 95.3121 198.029 95.3066 198.079C95.3042 198.095 95.3066 198.111 95.3134 198.126C95.3203 198.141 95.3314 198.153 95.3452 198.162C95.369 198.174 95.3963 198.178 95.4226 198.173ZM96.4117 196.515H96.4725C96.6438 196.515 96.6548 196.604 96.6604 196.626C96.7046 196.902 96.0415 197.593 95.5552 197.891C95.6055 197.426 95.7985 196.988 96.1078 196.637C96.1942 196.567 96.301 196.529 96.4117 196.526V196.515Z" fill="#F7B00A"/>
<path d="M90.958 198.073H95.0194L95.4228 188.674H91.3614L90.958 198.073Z" fill="#FFC3BD"/>
<path d="M61.1631 196.194L65.1305 197.051L69.1146 188.298L65.1471 187.441L61.1631 196.194Z" fill="#FFC3BD"/>
<path d="M65.5118 196.653L61.0581 195.692C60.979 195.672 60.8955 195.681 60.8225 195.718C60.7496 195.754 60.6921 195.816 60.6603 195.891L59.1131 199.245C59.0755 199.327 59.0569 199.416 59.0587 199.506C59.0606 199.596 59.0828 199.685 59.1237 199.765C59.1647 199.845 59.2233 199.915 59.2951 199.97C59.367 200.024 59.4502 200.061 59.5386 200.079C61.1023 200.389 61.8759 200.46 63.8376 200.886C65.0422 201.146 67.7663 201.809 69.4296 202.168C71.0928 202.527 71.673 200.93 71.021 200.632C68.1089 199.3 66.8933 198.129 66.1031 197.04C65.9607 196.842 65.75 196.704 65.5118 196.653Z" fill="#263238"/>
<path d="M94.9912 197.593H90.5707C90.4901 197.593 90.4119 197.62 90.3488 197.671C90.2856 197.721 90.2412 197.791 90.2226 197.869L89.4213 201.477C89.4012 201.565 89.4012 201.656 89.4214 201.743C89.4416 201.831 89.4814 201.912 89.5379 201.982C89.5943 202.052 89.6659 202.108 89.7472 202.146C89.8285 202.184 89.9173 202.203 90.0071 202.201C91.604 202.174 93.9137 202.08 95.9251 202.08C98.2735 202.08 100.307 202.207 103.064 202.207C104.722 202.207 105.192 200.521 104.495 200.372C101.318 199.676 98.7266 199.604 95.9803 197.908C95.6862 197.713 95.3438 197.604 94.9912 197.593Z" fill="#263238"/>
<path d="M78.5854 59.5215C74.7782 60.3946 71.6396 70.1032 71.6396 70.1032L79.2817 75.9273C81.2609 73.8226 82.657 71.2381 83.332 68.4289C84.6416 63.3177 82.4755 58.6264 78.5854 59.5215Z" fill="#F7B00A"/>
<path opacity="0.2" d="M81.8453 66.6611C79.7787 68.7056 79.0825 72.43 78.9443 75.668L79.2814 75.9277C81.2606 73.82 82.6582 71.2343 83.3373 68.4238C83.4146 68.1199 83.4809 67.816 83.5362 67.5176L81.8453 66.6611Z" fill="black"/>
<path d="M101.346 59.7316C101.346 59.7316 104.463 62.7818 103.286 78.9997C102.976 83.2877 101.335 88.4984 100.484 94.8143H81.5146C81.3598 91.4989 81.7964 75.2257 78.5859 59.5217C80.993 59.0586 83.4276 58.7522 85.8743 58.6044C88.9478 58.4274 92.0288 58.4274 95.1022 58.6044C97.2098 58.8167 99.2975 59.1936 101.346 59.7316Z" fill="#263238"/>
<path opacity="0.6" d="M103.523 73.3085C103.164 70.9545 102.782 68.8879 102.418 67.1197L102.296 67.0479L96.3506 69.5399C96.6379 73.2366 100.545 76.9665 103.263 79.1491C103.263 79.0994 103.263 79.0441 103.263 78.9999C103.418 76.8836 103.495 74.9993 103.523 73.3085Z" fill="black"/>
<path opacity="0.2" d="M95.4227 188.674L95.2127 193.52H91.1514L91.3613 188.674H95.4227Z" fill="black"/>
<path opacity="0.2" d="M65.1474 187.441L69.1148 188.298L67.0592 192.812L63.0918 191.956L65.1474 187.441Z" fill="black"/>
<path d="M85.0672 45.194C86.1115 49.062 86.5204 51.416 88.9352 53.035C92.549 55.4663 97.0414 52.6758 97.185 48.5481C97.3121 44.8349 95.5826 39.0937 91.4107 38.3145C90.4898 38.134 89.5381 38.1924 88.6462 38.4841C87.7543 38.7759 86.9521 39.2913 86.3159 39.9811C85.6798 40.671 85.2311 41.5123 85.0125 42.4249C84.7938 43.3375 84.8127 44.2908 85.0672 45.194Z" fill="#FFC3BD"/>
<path d="M93.8642 94.8145C93.8642 94.8145 89.2557 125.841 86.7305 137.462C83.9677 150.171 69.1091 192.299 69.1091 192.299L61.8428 190.724C61.8428 190.724 72.2256 156.409 74.5519 138.617C75.5852 130.687 75.7344 117.221 77.0661 107.308C77.6953 102.887 79.2081 98.6383 81.5142 94.8145H93.8642Z" fill="#263238"/>
<path d="M70.8492 189.856L69.4954 192.481L61.3174 190.713L62.0081 188.254L70.8492 189.856Z" fill="#F7B00A"/>
<path opacity="0.6" d="M90.952 105.866C85.6252 106.91 86.1888 126.775 86.8298 136.992C88.366 129.77 90.6149 115.873 92.1511 106.009C91.7794 105.826 91.3564 105.776 90.952 105.866Z" fill="black"/>
<path d="M100.462 94.8145C100.462 94.8145 102.12 125.167 101.683 137.545C101.225 150.425 96.7101 192.581 96.7101 192.581H89.8527C89.8527 192.581 89.5985 151.177 89.3001 138.528C88.963 124.742 87.2998 94.8145 87.2998 94.8145H100.462Z" fill="#263238"/>
<path d="M98.0304 189.856C98.058 189.856 97.6381 192.708 97.6381 192.708H89.2943L89.0732 190.16L98.0304 189.856Z" fill="#F7B00A"/>
<path d="M103.329 63.4346C103.954 64.4071 104.661 65.4957 105.374 66.5069C106.087 67.5181 106.822 68.5403 107.584 69.5184C109.028 71.4563 110.639 73.2646 112.397 74.9225C112.823 75.3148 113.259 75.6795 113.701 76.0276L114.033 76.2763C113.972 76.2441 113.907 76.2218 113.839 76.21C113.696 76.1823 113.624 76.21 113.662 76.21C113.988 76.2338 114.314 76.1709 114.607 76.0276C115.09 75.8201 115.557 75.5782 116.005 75.3038C118.063 73.9468 120.014 72.4339 121.841 70.7782L124.211 72.6956C122.773 75.1083 120.983 77.2929 118.901 79.1773C118.31 79.6986 117.674 80.1664 117 80.5753C116.149 81.1048 115.2 81.4564 114.21 81.6086C113.102 81.7668 111.975 81.528 111.027 80.9344L110.546 80.6305C109.916 80.2216 109.314 79.7906 108.739 79.3375C106.552 77.5602 104.557 75.5582 102.788 73.3642C101.92 72.2923 101.086 71.2092 100.307 70.0875C99.5278 68.9658 98.7763 67.8772 98.0469 66.5953L103.329 63.4346Z" fill="#FFC3BD"/>
<path d="M95.3563 65.8711C94.0577 71.314 103.905 76.6407 103.905 76.6407L110.298 69.1479C108.378 66.3147 106.191 63.6723 103.766 61.2572C99.2906 56.9637 96.3399 61.7269 95.3563 65.8711Z" fill="#F7B00A"/>
<path d="M121.188 71.888L122.697 67.042L126.67 69.0202C126.67 69.0202 126.09 72.5566 123.2 73.17L121.188 71.888Z" fill="#FFC3BD"/>
<path d="M124.289 65.6992L127.875 66.6828L126.67 69.0202L122.697 67.042L124.289 65.6992Z" fill="#FFC3BD"/>
<path d="M89.1897 50.9296C90.2211 50.6995 91.165 50.1785 91.9093 49.4283C92.6536 48.6781 93.1672 47.7301 93.3892 46.6969C93.3892 46.6969 92.5051 44.3651 94.1628 42.7792C95.8205 41.1933 95.0027 39.4638 93.345 39.1378C91.6873 38.8117 89.1455 40.7955 89.1455 40.7955L87.123 44.4203L87.9464 48.0783L89.1897 50.9296Z" fill="#263238"/>
<path opacity="0.3" d="M89.1897 50.9296C90.2211 50.6995 91.165 50.1785 91.9093 49.4283C92.6536 48.6781 93.1672 47.7301 93.3892 46.6969C93.3892 46.6969 92.5051 44.3651 94.1628 42.7792C95.8205 41.1933 95.0027 39.4638 93.345 39.1378C91.6873 38.8117 89.1455 40.7955 89.1455 40.7955L87.123 44.4203L87.9464 48.0783L89.1897 50.9296Z" fill="white"/>
<path d="M91.6874 45.3543C91.9564 46.324 92.5394 47.1772 93.3451 47.7801C94.4005 48.5647 95.1907 47.7801 95.1134 46.5976C95.047 45.4924 94.4171 43.8347 93.2512 43.4921C92.0853 43.1495 91.4001 44.1884 91.6874 45.3543Z" fill="#FFC3BD"/>
<path d="M89.7424 49.8465C88.7533 47.487 86.9298 41.3811 93.3728 39.1377C93.3728 39.1377 92.9031 33.2473 96.0362 35.6454C96.0362 35.6454 93.0412 31.8216 92.6268 35.7338C92.6268 35.7338 91.8919 34.4021 92.997 33.5236C92.997 33.5236 87.1011 31.5454 87.2393 36.0101C87.0767 35.5509 87.0294 35.0587 87.1017 34.577C87.174 34.0952 87.3635 33.6386 87.6537 33.2473C87.6537 33.2473 86.3717 33.1699 85.8634 35.1923C85.355 37.2147 80.3487 36.7948 80.8074 41.3977C80.8074 41.3977 76.3868 46.9565 87.0017 51.7031C87.0017 51.7031 85.6037 52.5651 86.3994 53.941C86.5441 53.4583 86.7865 53.0106 87.1116 52.6256C87.4367 52.2406 87.8375 51.9266 88.2891 51.7031C88.2891 51.7031 87.5984 53.2779 89.0738 53.7421C88.9266 53.3351 88.8895 52.8965 88.9662 52.4705C89.0428 52.0446 89.2305 51.6465 89.5103 51.3163C89.6852 51.119 89.8001 50.8757 89.8412 50.6153C89.8823 50.3548 89.848 50.0881 89.7424 49.8465Z" fill="#263238"/>
<path opacity="0.1" d="M93.538 52.2664C92.1344 52.3327 92.2173 53.7031 92.2394 53.9241C93.4561 53.8056 94.5952 53.2731 95.4664 52.4156C94.9581 52.504 94.4165 52.2278 93.538 52.2664Z" fill="black"/>
<path d="M92.8252 38.5461C92.8252 38.5461 93.5491 35.8772 94.9139 36.4077C96.2788 36.9381 95.3118 39.0987 96.019 40.1099C95.6912 39.9703 95.4056 39.7475 95.1904 39.4635C94.9752 39.1795 94.838 38.8442 94.7923 38.4908C94.5934 37.231 93.3557 39.1373 93.3557 39.1373L92.8252 38.5461Z" fill="#263238"/>
<path d="M93.3617 49.2328L94.6768 47.7243L94.1739 47.2822H92.5439L92.041 47.7243L93.3617 49.2328Z" fill="#F7B00A"/>
<path opacity="0.2" d="M93.1793 47.2822H92.5439L92.041 47.7243L93.3617 49.2328L92.6765 47.7243L93.1793 47.2822Z" fill="white"/>
</svg>
